<svg height="512" viewBox="0 0 128 128" width="512" xmlns="http://www.w3.org/2000/svg"><g><g fill="#fd474d"><path d="m56.636 42.774a1.75 1.75 0 1 0 -3.369.948l1.308 4.652a1.75 1.75 0 0 0 1.684 1.276 1.725 1.725 0 0 0 .474-.065 1.749 1.749 0 0 0 1.211-2.158z"/><path d="m48.374 54.575-4.652-1.308a1.75 1.75 0 1 0 -.948 3.369l4.653 1.308a1.726 1.726 0 0 0 .474.066 1.75 1.75 0 0 0 .473-3.435z"/><path d="m49.385 46.91a1.75 1.75 0 1 0 -2.475 2.475l3.933 3.932a1.749 1.749 0 0 0 2.474-2.474z"/><path d="m73.425 79.626a1.75 1.75 0 1 0 -3.369.947l1.308 4.653a1.75 1.75 0 1 0 3.369-.948z"/><path d="m85.226 71.364-4.653-1.308a1.75 1.75 0 1 0 -.947 3.369l4.652 1.308a1.75 1.75 0 1 0 .948-3.369z"/><path d="m77.157 74.683a1.749 1.749 0 0 0 -2.474 2.474l3.932 3.933a1.75 1.75 0 0 0 2.475-2.475z"/></g><path d="m105.143 41.85a8.8 8.8 0 0 0 -7.883-14.068 8.8 8.8 0 1 0 -17.292 1.268 7.357 7.357 0 0 1 -1.79 7.056l-17.4 17.405 1.479 5.379 6.992-1.479-.537 4.034 2.824 2.824 17.4-17.405a7.352 7.352 0 0 1 7.056-1.79 8.794 8.794 0 0 0 9.151-3.224z" fill="#febea6"/><path d="m22.857 86.15a8.8 8.8 0 0 0 7.883 14.068 8.8 8.8 0 1 0 17.292-1.268 7.357 7.357 0 0 1 1.79-7.056l17.405-17.4-1.479-5.384-6.992 1.479.537-4.034-2.824-2.824-17.4 17.4a7.352 7.352 0 0 1 -7.056 1.79 8.794 8.794 0 0 0 -9.156 3.229z" fill="#fda789"/></g></svg>