<?xml version="1.0"?>
<svg xmlns="http://www.w3.org/2000/svg" xmlns:xlink="http://www.w3.org/1999/xlink" width="512" height="512" viewBox="0 0 128 128"><defs><linearGradient id="a" x1="81.09" y1="81.09" x2="46.91" y2="46.91" gradientUnits="userSpaceOnUse"><stop offset="0" stop-color="#c681ff"/><stop offset="1" stop-color="#65f7ec"/></linearGradient></defs><path d="M53.267,43.722a1.75,1.75,0,1,1,3.369-.948l1.308,4.653a1.749,1.749,0,0,1-1.211,2.158,1.725,1.725,0,0,1-.474.065,1.75,1.75,0,0,1-1.684-1.276ZM42.774,56.636l4.653,1.308a1.726,1.726,0,0,0,.474.066,1.75,1.75,0,0,0,.473-3.435l-4.652-1.308a1.75,1.75,0,1,0-.948,3.369Zm8.069-3.319a1.749,1.749,0,0,0,2.474-2.474L49.385,46.91a1.75,1.75,0,1,0-2.475,2.475ZM73.425,79.626a1.75,1.75,0,1,0-3.369.947l1.308,4.653a1.75,1.75,0,1,0,3.369-.948Zm11.8-8.262-4.653-1.308a1.75,1.75,0,1,0-.947,3.369l4.652,1.308a1.75,1.75,0,1,0,.948-3.369Zm-8.069,3.319a1.749,1.749,0,0,0-2.474,2.474l3.932,3.933a1.75,1.75,0,0,0,2.475-2.475ZM60.564,59.354a1.75,1.75,0,0,0,3.375-.928l-1.21-4.4L79.415,37.344a9.074,9.074,0,0,0,2.251-8.717,7.026,7.026,0,0,1,1.124-5.841,1.75,1.75,0,0,0-2.834-2.055,10.521,10.521,0,0,0-1.686,8.743,5.609,5.609,0,0,1-1.33,5.4l-17.4,17.4a1.751,1.751,0,0,0-.45,1.7ZM85.733,20.313a1.749,1.749,0,0,0,.545-.087A7.167,7.167,0,0,1,87.151,20a1.75,1.75,0,1,0-.656-3.437,10.393,10.393,0,0,0-1.307.336,1.751,1.751,0,0,0,.545,3.414ZM106.5,30.12a10.554,10.554,0,0,0-7.483-4.1,10.562,10.562,0,0,0-4.095-7.484,10.35,10.35,0,0,0-2.533-1.435,1.75,1.75,0,0,0-1.282,3.256,6.847,6.847,0,0,1,1.674.949,7.058,7.058,0,0,1,2.738,6.3,1.749,1.749,0,0,0,.5,1.409,1.729,1.729,0,0,0,1.409.5,7.05,7.05,0,1,1-1.015,13.854A9.069,9.069,0,0,0,87.7,45.627L71.53,61.794l-.974-.975.423-3.176a1.75,1.75,0,0,0-3.469-.463l-.537,4.034a1.745,1.745,0,0,0,.5,1.469l2.823,2.823a1.749,1.749,0,0,0,2.475,0L90.173,48.1a5.607,5.607,0,0,1,5.4-1.33A10.549,10.549,0,0,0,106.5,30.12ZM67.436,68.646a1.742,1.742,0,0,0-2.05-1.248l-4.569.966.21-1.578a1.745,1.745,0,0,0-.5-1.469l-2.823-2.823a1.751,1.751,0,0,0-2.475,0l-17.4,17.4a5.607,5.607,0,0,1-5.4,1.33,10.55,10.55,0,1,0-3.448,20.747A10.55,10.55,0,1,0,49.73,98.526a5.609,5.609,0,0,1,1.33-5.395,1.75,1.75,0,1,0-2.475-2.475,9.074,9.074,0,0,0-2.251,8.717,7.049,7.049,0,1,1-13.853,1.017,1.747,1.747,0,0,0-1.912-1.912,7.05,7.05,0,1,1,1.015-13.854A9.082,9.082,0,0,0,40.3,82.373L56.47,66.206l.974.975-.423,3.176a1.75,1.75,0,0,0,2.1,1.944l5.38-1.138.773,2.809-6.837,6.837a1.749,1.749,0,0,0,2.474,2.474l7.557-7.556a1.751,1.751,0,0,0,.45-1.7ZM54.247,85l-.571.57a1.75,1.75,0,1,0,2.472,2.477l.572-.57A1.75,1.75,0,0,0,54.247,85Z" fill="url(#a)"/></svg>
