<svg height="512" viewBox="0 0 128 128" width="512" xmlns="http://www.w3.org/2000/svg"><g><path d="m109.88 108.02h-91.76a45.88 45.88 0 0 1 91.76 0z" fill="#ffecd5"/><path d="m65.94 108.01v.01h-3.5l-.19-26.4a1.754 1.754 0 0 1 1.74-1.77h.01a1.756 1.756 0 0 1 1.75 1.74z" fill="#ffd0b0"/><g fill="#fda789"><circle cx="40.272" cy="43.724" r="6.568"/><circle cx="87.813" cy="43.724" r="6.568"/><path d="m87.813 68.8a45.92 45.92 0 0 0 -47.626 0 28.551 28.551 0 0 0 47.626 0z"/></g><circle cx="85.451" cy="97.52" fill="#a2faf3" r="4.206"/><path d="m85.451 103.476a5.957 5.957 0 1 1 5.956-5.956 5.963 5.963 0 0 1 -5.956 5.956zm0-8.413a2.457 2.457 0 1 0 2.456 2.457 2.459 2.459 0 0 0 -2.456-2.457z" fill="#6cf7ec"/><path d="m78.637 57.9h-31.637a8.574 8.574 0 0 0 -8.564 8.565v15.261h-.036a6 6 0 0 0 -5.974 5.355l-1.232 11.266a4.626 4.626 0 0 0 4.6 5.129 1.75 1.75 0 0 0 0-3.5 1.126 1.126 0 0 1 -1.119-1.248l1.234-11.265a2.509 2.509 0 0 1 2.5-2.237h3.738a2.506 2.506 0 0 1 2.5 2.236l1.235 11.266a1.126 1.126 0 0 1 -1.119 1.248h-.334a1.75 1.75 0 0 0 0 3.5h.334a4.626 4.626 0 0 0 4.6-5.129l-1.249-11.266a6 6 0 0 0 -5.973-5.355h-.2v-15.265a5.07 5.07 0 0 1 5.059-5.061h31.637a5.07 5.07 0 0 1 5.063 5.061v26.852a1.75 1.75 0 1 0 3.5 0v-26.852a8.574 8.574 0 0 0 -8.563-8.561z" fill="#6cf7ec"/><circle cx="64" cy="43.704" fill="#febea6" r="23.728"/><path d="m87.246 38.922a23.717 23.717 0 0 0 -46.119-1.451c.266-.027 10.242-1.081 15.877-8.406-.004 0 9.941 13.435 30.242 9.857z" fill="#caa8fb"/><path d="m64 60.589a9.328 9.328 0 0 1 -9.317-9.318 1.75 1.75 0 0 1 3.5 0 5.817 5.817 0 1 0 11.634 0 1.75 1.75 0 0 1 3.5 0 9.328 9.328 0 0 1 -9.317 9.318z" fill="#fda789"/></g></svg>