<svg id="Layer_1" enable-background="new 0 0 128 128" height="512" viewBox="0 0 128 128" width="512" xmlns="http://www.w3.org/2000/svg" xmlns:xlink="http://www.w3.org/1999/xlink"><linearGradient id="SVGID_1_" gradientUnits="userSpaceOnUse" x1="101.175" x2="26.832" y1="119.176" y2="44.833"><stop offset="0" stop-color="#c681ff"/><stop offset="1" stop-color="#65f7ec"/></linearGradient><path d="m23.7 90c-2.5 5.7-3.8 11.8-3.8 18 0 1-.8 1.8-1.8 1.8s-1.7-.8-1.7-1.8c0-6.7 1.4-13.3 4.1-19.4.4-.9 1.4-1.3 2.3-.9s1.3 1.4.9 2.3zm3.1-8.8c-.8-.5-1.9-.3-2.4.5-.2.3-.4.6-.6.9-.5.8-.3 1.9.5 2.4s1.9.3 2.4-.5c.2-.3.3-.5.5-.8.6-.9.4-2-.4-2.5zm84.8 26.8c0 1-.8 1.8-1.8 1.8s-1.8-.8-1.8-1.8c0-14.8-7.5-28.7-19.9-36.8 0 0 0 .1-.1.1v15.7c0 1-.8 1.8-1.8 1.8s-1.5-.8-1.5-1.8v-11.8c-5.2 4.8-11.9 7.7-18.9 8.1l.2 24.7c0 1-.8 1.8-1.7 1.8-1 0-1.7-.8-1.8-1.7l-.2-24.7c-5.8-.4-11.3-2.4-16-5.7-.8-.6-.9-1.7-.3-2.5s1.6-.9 2.4-.4c11.5 8.2 27.4 6.2 36.3-4.8v-1c-2.5-1.4-5.2-2.5-8-3.3-7.9 4.6-17.6 4.6-25.4 0-2.9.9-5.7 2-8.4 3.5v12.5c3.2 0 5.8 2 6.2 5.4l1.2 11.3c.3 2.8-1.8 5.2-4.9 5.1-1 0-1.8-.8-1.8-1.8s.8-1.8 1.8-1.8c1.3 0 1.5-.7 1.5-1.2-.3-2.8-1.2-11.3-1.2-11.3-.1-1.3-1.2-2.2-2.5-2.2h-3.7c-1.3 0-2.4 1-2.5 2.2 0 0-.9 8.4-1.2 11.3-.1 1.1.8 1.2 1.1 1.2 1 0 1.8.8 1.8 1.8s-.8 1.8-1.8 1.8c-2.9 0-4.9-2.4-4.6-5.1.3-2.8 1.2-11.3 1.2-11.3.4-3.4 3.1-5.4 6-5.4v-10.3c-3.3 2.2-6.2 4.8-8.8 7.7-.6.7-1.7.8-2.5.2-.7-.6-.8-1.7-.2-2.5 3.3-3.8 7.1-7 11.4-9.6v-.8c0-3 1.6-5.9 4.3-7.4-1.6-2.1-2.9-4.5-3.8-7-4.6-.2-8.2-4.1-8-8.6.2-4.3 3.6-7.8 8-8 4.3-12.5 17.6-19.7 30.4-16.4.9.2 1.5 1.2 1.3 2.1s-1.2 1.5-2.1 1.3c-11.8-3-23.7 4.1-26.8 15.8-3 11.8 4.1 23.8 15.8 26.8 12.3 3.3 28.9-5.4 27.2-24.1-1.8.2-3.6.4-5.3.4-8.7.1-17.2-3.3-23.4-9.6-2.3 2.3-5 4.2-8 5.4-.9.4-1.9.1-2.3-.8s-.1-2 .8-2.3c3.4-1.4 6.1-3.3 8.2-6 .3-.4.9-.7 1.4-.7s1.1.3 1.4.7c.4.5 9 11.7 26.7 9.5-.9-3.1-2.5-6-4.7-8.4-.7-.7-.6-1.8.1-2.5s1.8-.6 2.5.1c2.2 2.5 4 5.5 5 8.7 4.6.1 8.2 4 8 8.6-.1 4.4-3.7 7.9-8 8-.9 2.6-2.2 5-3.9 7.2 2.5 1.6 4 4.3 4 7.2v.6c6.2 3.7 23.4 16.1 23.4 41zm-72.6-59.7c-.6-3-.6-6.2 0-9.2-2.5.7-4 3.4-3.3 5.9.4 1.6 1.6 2.9 3.3 3.3zm8.7 15c-.6-.5-1.1-1-1.6-1.5-1.5.6-2.6 1.9-3 3.4 1.5-.7 3-1.4 4.6-1.9zm41.4-24.2c.6 3.1.6 6.2 0 9.3 2.6-.7 4.1-3.3 3.4-5.8-.5-1.8-1.8-3.1-3.4-3.5zm-8.8 24.2c1.4.5 2.8 1.1 4.2 1.8-.4-1.4-1.4-2.5-2.7-3.1-.5.4-1 .8-1.5 1.3zm12.1 34.2c0 3.3-2.7 6-6 6s-6-2.7-6-6 2.7-6 6-6c3.3.1 6 2.7 6 6zm-3.5 0c0-1.4-1.1-2.5-2.5-2.5s-2.4 1.2-2.4 2.5c0 1.4 1.1 2.5 2.5 2.5 1.3 0 2.4-1.1 2.4-2.5zm-14.4-73.1c.4.2.7.4 1.1.6.8.5 1.9.3 2.4-.6.5-.8.268-1.819-.6-2.4-.4-.3-.8-.5-1.3-.7-.921-.444-1.9-.2-2.4.7-.4.9-.1 1.9.8 2.4zm-1.2 26.9c0-1-.8-1.8-1.8-1.8s-1.8.8-1.8 1.8c0 3.2-2.6 5.8-5.8 5.8s-5.8-2.6-5.8-5.8c0-1-.8-1.8-1.8-1.8s-1.8.8-1.8 1.8c0 5.1 4.2 9.3 9.3 9.3s9.5-4.2 9.5-9.3z" fill="url(#SVGID_1_)"/></svg>