<svg height="512" viewBox="0 0 128 128" width="512" xmlns="http://www.w3.org/2000/svg"><g><path d="m95.766 91.965h-63.049a1.75 1.75 0 0 0 0 3.5h63.049a1.75 1.75 0 0 0 0-3.5z" fill="#febea6"/><path d="m99.458 73.351h-31.381v6.166h37.548a6.167 6.167 0 0 0 -6.167-6.166z" fill="#6cf7ec"/><circle cx="64" cy="37.748" fill="#fd474d" r="19.625"/><path d="m73.312 34.436h-6v-6h-6.625v6h-6v6.625h6v6h6.625v-6h6z" fill="#fff"/><path d="m72.179 73.229a6.278 6.278 0 0 0 -6.279-6.278h-41.4v17.956h85.377v-5.4h-31.419a6.279 6.279 0 0 1 -6.279-6.278z" fill="#a2faf3"/><path d="m35.5 66.951h-6.167l-11.21-19.866h6.167z" fill="#6cf7ec"/><path d="m29.228 104.752h-4.833l6.272-19.845h4.833z" fill="#fda789"/><path d="m99.254 104.752h4.833l-6.271-19.845h-4.834z" fill="#fda789"/><g fill="#fd474d"><circle cx="27.125" cy="103.752" r="6.125"/><circle cx="101.294" cy="103.752" r="6.125"/></g></g></svg>