<svg id="Layer_1" enable-background="new 0 0 128 128" height="512" viewBox="0 0 128 128" width="512" xmlns="http://www.w3.org/2000/svg" xmlns:xlink="http://www.w3.org/1999/xlink"><linearGradient id="SVGID_1_" gradientUnits="userSpaceOnUse" x1="100.253" x2="23.476" y1="116.067" y2="39.291"><stop offset="0" stop-color="#c681ff"/><stop offset="1" stop-color="#65f7ec"/></linearGradient><path d="m42.6 37.7c0-3.2.7-6.3 2-9.1.4-.9 1.5-1.2 2.3-.8s1.2 1.5.8 2.3c-1.1 2.4-1.7 5-1.7 7.6 0 9.9 8 17.9 17.9 17.8s17.9-8 17.8-17.9c0-9.9-8-17.9-17.9-17.8-2.3 0-4.5.4-6.7 1.3-.9.4-1.9 0-2.3-.9s0-1.9.9-2.3c10.9-4.4 23.4.9 27.8 11.8 4.7 11-.5 23.4-11.5 27.9s-23.4-.9-27.8-11.8c-1-2.6-1.6-5.3-1.6-8.1zm8.6-12.4c.43-.396.73-.625 1.1-1 .702-.712.9-1.7.3-2.5s-1.7-.9-2.5-.3c-.1 0-1 .9-1.5 1.4-.7.7-.7 1.8 0 2.5 1.05 1.1 2.2.2 2.6-.1zm3.5 17.5h4.3v4.3c0 1 .8 1.7 1.8 1.8h6.6c1 0 1.8-.8 1.8-1.8s-.8-1.8-1.8-1.8h-4.9v-4.3c0-1-.8-1.7-1.7-1.8h-4.3v-3.1h4.3c1 0 1.8-.8 1.8-1.8v-4.3h3.1v4.3c0 1 .8 1.7 1.8 1.8h4.3v3.1h-4.3c-1 0-1.8.8-1.8 1.8s.8 1.8 1.8 1.8h6c1 0 1.8-.8 1.8-1.8v-6.6c0-1-.8-1.7-1.7-1.8h-4.3v-4.3c0-1-.8-1.7-1.7-1.8h-6.6c-1 0-1.8.8-1.8 1.8v4.3h-4.3c-1 0-1.8.8-1.8 1.8v6.6c-.2 1 .6 1.8 1.6 1.8zm56.9 36.7v5.4c0 1-.8 1.7-1.7 1.8h-9.7l3 9.5c4.2 1 6.8 5.3 5.8 9.5s-5.3 6.8-9.5 5.8-6.8-5.3-5.8-9.5c.3-1.3.9-2.4 1.8-3.4l-1-3h-8.3c-1 0-1.8-.8-1.8-1.8s.8-1.8 1.8-1.8h7.2l-1.7-5.3h-59.7l-3 9.4c.4.1.7.2 1.1.3l2.2-7.1c.2-.9 1.2-1.5 2.1-1.2.9.2 1.5 1.2 1.2 2.1 0 .1-.6 1.7-.6 1.7h37.3c1 0 1.8.8 1.8 1.8s-.8 1.8-1.8 1.8h-38.3l-1 3.1c2.9 3.3 2.6 8.2-.7 11.1s-8.2 2.6-11.1-.7-2.6-8.2.7-11.1c1-.9 2.1-1.5 3.4-1.8l3-9.4h-3.8c-1 0-1.7-.8-1.8-1.7v-18c0-1 .8-1.7 1.7-1.8h8l-9.2-16.4h-2.1l6 10.6c.5.8.2 1.9-.6 2.4s-1.9.2-2.4-.6c0 0 0 0 0-.1l-7.4-13.2c-.3-.6-.3-1.3 0-1.8.3-.4.8-.8 1.5-.8h6.2c.6 0 1.2.3 1.5.9l10.7 19h29.4c4.4 0 8 3.6 8 8 0 2.5 2 4.5 4.5 4.5h25c-.7-1.6-2.3-2.7-4-2.7h-20.3c-1 0-1.8-.8-1.8-1.8s.8-1.8 1.8-1.8h20.3c3.7 0 6.9 2.6 7.7 6.2h2.7c.9.2 1.7.9 1.7 1.9zm-80.1 24.3c0-2.4-2-4.4-4.4-4.4s-4.4 2-4.4 4.4 2 4.4 4.4 4.4c2.4-.1 4.4-2 4.4-4.4zm69.8-4.4c-2.4 0-4.4 2-4.4 4.4s2 4.4 4.4 4.4 4.4-2 4.4-4.4c0-2.5-2-4.4-4.4-4.4zm-4.8-12.7h-1.2l3.1 9.8c.3-.1.7-.2 1.1-.3zm11.6-5.4h-29.6c-4.4 0-8-3.6-8-8 0-2.5-2-4.5-4.5-4.5h-39.7v14.5h81.9v-2zm-28.2 10.7h-1.4c-1 0-1.8.8-1.8 1.8s.8 1.8 1.8 1.8h1.4c1 0 1.8-.8 1.8-1.8s-.9-1.8-1.8-1.8z" fill="url(#SVGID_1_)"/></svg>