<svg height="512" viewBox="0 0 128 128" width="512" xmlns="http://www.w3.org/2000/svg" xmlns:xlink="http://www.w3.org/1999/xlink"><linearGradient id="a" gradientUnits="userSpaceOnUse" x1="95.391" x2="31.907" y1="115.459" y2="51.975"><stop offset="0" stop-color="#c681ff"/><stop offset="1" stop-color="#65f7ec"/></linearGradient><path d="m76.406 43.154a1.75 1.75 0 1 1 2.576-2.369c.263.285.529.587.8.9a1.75 1.75 0 1 1 -2.682 2.258c-.233-.276-.464-.543-.694-.789zm35.221 26.9v12.91a1.751 1.751 0 0 1 -1.75 1.75h-7.53l5.4 17.046a1.749 1.749 0 0 1 -1.668 2.278h-4.625a1.749 1.749 0 0 1 -1.613-1.071l-5.635-13.4a1.75 1.75 0 0 1 3.227-1.357l5.184 12.33h1.071l-5.012-15.822h-6.97c.05 1.67.084 3.369.084 5.1a6.75 6.75 0 0 1 -13.5 0c0-1.74-.036-3.438-.089-5.1h-19.368a1.75 1.75 0 1 1 0-3.5h49.294v-9.41h-11.727a6.928 6.928 0 0 1 -.71.038 1.78 1.78 0 0 1 -.36-.038h-20.33a1.75 1.75 0 0 1 0-3.5h21.07a3.242 3.242 0 0 0 -.377-6.462h-19.351-.015-.016-27.576a3.254 3.254 0 0 0 -3.25 3.25v9.66a1.746 1.746 0 0 1 -.344 1.043l-5.362 7.226a3.257 3.257 0 0 0 .632 4.562 3.25 3.25 0 0 0 4.552-.639l6.361-8.554a3.277 3.277 0 0 0 .661-1.965v-6.329-.015-.023a1.75 1.75 0 0 1 1.75-1.75h7.849a1.75 1.75 0 1 1 0 3.5h-6.1v4.621a6.8 6.8 0 0 1 -1.359 4.063l-6.361 8.553a6.745 6.745 0 0 1 -12.137-3.849l-7.471 17.769a1.749 1.749 0 0 1 -1.613 1.071h-4.625a1.749 1.749 0 0 1 -1.668-2.278l5.4-17.046h-7.53a1.751 1.751 0 0 1 -1.75-1.75v-12.908a1.75 1.75 0 0 1 1.75-1.75h8.9a8.158 8.158 0 1 1 13.376 0h1.583v-3.208a6.752 6.752 0 0 1 6.5-6.737 6.889 6.889 0 0 1 -.521-1.187 6.751 6.751 0 0 1 4.306-8.519l8.528-2.8 2-5.6a8.151 8.151 0 1 1 8.008-4.951c.183.04.365.083.546.139a12.765 12.765 0 0 1 2.754 1.273 1.75 1.75 0 0 1 -1.8 3 9.455 9.455 0 0 0 -1.974-.931 3.243 3.243 0 0 0 -4.013 2.013l-2.513 7.035a1.752 1.752 0 0 1 -1.1 1.074l-9.341 3.069a3.25 3.25 0 1 0 2.028 6.175l11.667-3.833a3.23 3.23 0 0 0 2.046-1.994l.909-2.544a1.75 1.75 0 0 1 3.06-.445 34.53 34.53 0 0 1 4.513 9.009h6.807a49.034 49.034 0 0 0 -3.953-9.517 1.75 1.75 0 0 1 3.056-1.707 53.756 53.756 0 0 1 4.55 11.224h7.651a6.749 6.749 0 0 1 5.936 9.962h8.248a1.75 1.75 0 0 1 1.75 1.75zm-48.327-33.281a4.658 4.658 0 1 0 -4.658-4.658 4.663 4.663 0 0 0 4.658 4.658zm-29.586 31.535a4.658 4.658 0 1 0 -4.657-4.658 4.663 4.663 0 0 0 4.657 4.658zm-1.68 16.41h-2.71l-5.015 15.824h1.071zm9.951-10.54v-2.37h-22.112v9.41h16.908c.065-.1.124-.2.2-.289zm24.029-15.832h7.839a35.229 35.229 0 0 0 -1.8-4.038 6.7 6.7 0 0 1 -3.9 3.337zm22.191 26.372h-6.505c.052 1.667.088 3.365.088 5.1a3.25 3.25 0 0 0 6.5 0c.002-1.733-.033-3.432-.083-5.1zm-19.175-12.91a1.75 1.75 0 0 0 0-3.5h-.985a1.75 1.75 0 0 0 0 3.5z" fill="url(#a)"/></svg>