<svg height="512" viewBox="0 0 128 128" width="512" xmlns="http://www.w3.org/2000/svg"><g><path d="m85.04 94.821a5 5 0 0 1 -5-5c0-23.543-4.773-34.517-8.383-39.45l-.909 2.543a5 5 0 0 1 -3.148 3.068l-11.666 3.833a5 5 0 1 1 -3.121-9.5l9.341-3.069 2.511-7.029a5 5 0 0 1 6.173-3.1c1.965.6 19.2 7.2 19.2 52.7a5 5 0 0 1 -4.998 5.004z" fill="#febea6"/><path d="m18.123 70.058h91.754v12.91h-91.754z" fill="#fd474d"/><g fill="#de0a22"><path d="m26.543 102.293h-4.625l6.125-19.325h6.625z"/><path d="m101.457 102.293h4.625l-6.125-19.325h-6.625z"/></g><circle cx="33.714" cy="63.65" fill="#febea6" r="6.408"/><circle cx="63.298" cy="32.115" fill="#febea6" r="6.408"/><path d="m42.363 89.992a5 5 0 0 1 -3.989-8.009l5.361-7.227v-9.656a5 5 0 0 1 5-5h46.958a5 5 0 0 1 0 10h-41.958v6.333a5 5 0 0 1 -1.007 3.01l-6.368 8.557a4.993 4.993 0 0 1 -3.997 1.992z" fill="#fda789"/></g></svg>