<svg enable-background="new 0 0 140 140" height="512" viewBox="0 0 140 140" width="512" xmlns="http://www.w3.org/2000/svg"><circle cx="70" cy="70" fill="#de594e" r="64"/><path d="m96.4932175 31.882019h-48.160038c-3.7699585 0-6.8399658 3.0599976-6.8399658 6.8400269v62.8300171h.0200195c.0799561 1.4099731.5799561 2.6999512 1.3800049 3.7699585.3999634.5300293.8799438 1.0100098 1.4099731 1.4100342l27.2291908 27.229187c34.6359864-.8165894 62.4675827-29.1290283 62.4675827-63.9612427 0-.2890625-.0179443-.5737305-.0217896-.8618774l-36.0649947-36.6660767c-.3599854-.3699951-.8699951-.5900269-1.4199829-.5900269z" opacity=".1"/><path d="m48.3362694 31.8822746c-3.7776489 0-6.840023 3.0623207-6.840023 6.8399696v62.8307343h.7626839c-.3062706-2.1861038.4862442-4.55336 2.3901138-5.7788696.9163895-1.0147781 2.2554321-1.6903992 4.0331001-1.6903992.4654083 0 .9007759.0463257 1.3071938.1319427.3867722-.0790024.7927246-.1319427 1.2339859-.1319427v-62.2014351z" fill="#344d5b"/><path d="m96.494812 31.8822746h-45.6488342v63.2958412l47.6577682-1.0090256v-60.2778854c0-1.1095009-.8994293-2.0089302-2.008934-2.0089302z" fill="#44c4a1"/><path d="m55.4709435 31.8822746v10.8437767l4.4048995-3.2681312 4.4048958 3.2681312v-10.8437767z" fill="#feda6f"/><path d="m79.3513336 64.8405609c-1.6803894.8862534-3.3931503 1.2223358-5.4419861 1.2223358-5.0138016 0-9.2633286-3.6682396-9.2633286-9.5384178 0-6.2983704 4.3715134-11.7403564 11.1603088-11.7403564 5.3199997 0 8.897377 3.7304764 8.897377 8.8363838 0 4.5856094-2.5691376 7.275486-5.4419861 7.275486-1.224823 0-2.3550491-.8252602-2.2629318-2.6898766h-.1219864c-1.0704727 1.8036232-2.4770279 2.6898766-4.3117676 2.6898766-1.7725067 0-3.3010406-1.4364243-3.3010406-3.8512154 0-3.7914658 2.9948349-7.2468567 7.2443619-7.2468567 1.3144455 0 2.4770279.2750854 3.2711716.6422844l-1.0381088 5.5340996c-.4580612 2.3239212-.0921097 3.3931503.9161224 3.4242706 1.5609055.0298729 3.3035355-2.0488358 3.3035355-5.5950928 0-4.4337502-2.6612473-7.6128082-7.3987198-7.6128082-4.9839249 0-9.1737061 3.943325-9.1737061 10.1508255 0 5.1059113 3.3334045 8.2550964 7.856781 8.2550964 1.74263 0 3.3632736-.3671951 4.6179657-1.0704765zm-1.6803894-13.2078972c-.3062057-.0921135-.8265076-.2140961-1.5285416-.2140961-2.6911163 0-4.8619385 2.5380173-4.8619385 5.5029793 0 1.345562.6721573 2.323925 2.018959 2.323925 1.7725067 0 3.393158-2.2629318 3.7292328-4.1574211z" fill="#ebf0f3"/><g fill="#3ea69b"><path d="m55.121887 70.352928h39.105949v1.694121h-39.105949z"/><path d="m55.121887 77.976471h39.105949v1.694121h-39.105949z"/><path d="m55.121887 85.600014h39.105949v1.694121h-39.105949z"/></g><path d="m98.5037537 94.0394592h-50.0531769c-3.8248825 0-6.9543304 3.1294479-6.9543304 6.9543304v.1695251c0 3.824913 3.1294708 6.9543839 6.9543839 6.9543839h48.7611694c.5754242 0 .9586563-.598587.7125168-1.1187057-2.0443345-4.3198471-1.8511888-8.6396942.5794372-12.9595337z" fill="#31978c"/><path d="m96.0998688 95.6814651h-46.971756c-2.9362755 0-5.3165665 2.4051056-5.3165665 5.3898773 0 2.9847641 2.380291 5.4043503 5.3165665 5.4043503h46.971756c-1.5531159-3.5962829-1.5527497-7.1942214 0-10.7942276z" fill="#ededed"/></svg>