<svg height="512" viewBox="0 0 128 128" width="512" xmlns="http://www.w3.org/2000/svg"><g id="Circle_Grid" data-name="Circle Grid"><circle cx="64" cy="64" fill="#ea8953" r="64"/></g><g id="icon"><path d="m22 70.259v-12.518l11.363-2.334a32.712 32.712 0 0 1 2.9-7l-6.389-9.666 8.865-8.865 9.666 6.389a32.712 32.712 0 0 1 7-2.9l2.336-11.365h12.518l2.334 11.363a32.546 32.546 0 0 1 6.979 2.9l9.689-6.389 8.865 8.865-6.389 9.666a31.462 31.462 0 0 1 2.876 7l11.387 2.336v12.518l-11.387 2.334a31.3 31.3 0 0 1 -2.876 6.979l6.389 9.689-8.865 8.865-9.689-6.389a31.3 31.3 0 0 1 -6.979 2.876l-2.334 11.387h-12.518l-2.334-11.387a31.462 31.462 0 0 1 -7-2.876l-9.666 6.389-8.865-8.865 6.389-9.689a32.546 32.546 0 0 1 -2.9-6.979zm41.987 17.491a23.75 23.75 0 1 0 -23.738-23.762 23.773 23.773 0 0 0 23.738 23.762z" fill="#575b6d"/><circle cx="64" cy="64" fill="#eeefee" r="24.25"/><g fill="#575b6d"><rect height="2.978" rx=".66" width="1.32" x="63.34" y="41.556"/><rect height="2.978" rx=".66" width="1.32" x="63.34" y="83.466"/><rect height="2.978" rx=".66" transform="matrix(.866 -.5 .5 .866 -15.756 32.904)" width="1.32" x="52.862" y="44.364"/><rect height="2.978" rx=".66" transform="matrix(.866 -.5 .5 .866 -31.096 48.244)" width="1.32" x="73.817" y="80.658"/><rect height="2.978" rx=".66" transform="matrix(.5 -.866 .866 .5 -23.426 66.471)" width="1.32" x="45.193" y="52.034"/><rect height="2.978" rx=".66" transform="matrix(.5 -.866 .866 .5 -23.426 108.38)" width="1.32" x="81.487" y="72.988"/><rect height="2.978" rx=".66" transform="matrix(0 -1 1 0 -20.955 107.045)" width="1.32" x="42.385" y="62.511"/><rect height="2.978" rx=".66" transform="matrix(0 -1 1 0 20.955 148.955)" width="1.32" x="84.295" y="62.511"/><rect height="2.978" rx=".66" transform="matrix(-.5 -.866 .866 -.5 4.28 151.426)" width="1.32" x="45.193" y="72.988"/><rect height="2.978" rx=".66" transform="matrix(-.5 -.866 .866 -.5 76.869 151.426)" width="1.32" x="81.487" y="52.034"/><rect height="2.978" rx=".66" transform="matrix(-.866 -.5 .5 -.866 58.801 180.05)" width="1.32" x="52.862" y="80.658"/><rect height="2.978" rx=".66" transform="matrix(-.866 -.5 .5 -.866 116.05 122.801)" width="1.32" x="73.817" y="44.364"/><path d="m64 64.95a.96.96 0 0 1 -.321-.056l-10.479-3.754a.95.95 0 1 1 .641-1.788l9.486 3.4 3.476-14.129a.95.95 0 1 1 1.845.454l-3.726 15.15a.95.95 0 0 1 -.922.723z"/><path d="m66.909 64a2.909 2.909 0 1 1 -2.909-2.909 2.916 2.916 0 0 1 2.909 2.909z"/></g></g></svg>